<mxfile host="app.diagrams.net" modified="2024-01-24T21:10:50.964Z" agent="Mozilla/5.0 (Windows NT 10.0; Win64; x64) AppleWebKit/537.36 (KHTML, like Gecko) Chrome/120.0.0.0 Safari/537.36" etag="eUDG6aynT3FOIM11QNHw" version="22.1.21" type="device">
  <diagram name="Page-1" id="b520641d-4fe3-3701-9064-5fc419738815">
    <mxGraphModel dx="1518" dy="624" grid="1" gridSize="10" guides="1" tooltips="1" connect="1" arrows="1" fold="1" page="1" pageScale="1" pageWidth="1100" pageHeight="850" background="none" math="0" shadow="0">
      <root>
        <mxCell id="0" />
        <mxCell id="1" parent="0" />
        <mxCell id="21ea969265ad0168-6" value="organizations" style="swimlane;html=1;fontStyle=0;childLayout=stackLayout;horizontal=1;startSize=26;fillColor=#e0e0e0;horizontalStack=0;resizeParent=1;resizeLast=0;collapsible=1;marginBottom=0;swimlaneFillColor=#ffffff;align=center;rounded=1;shadow=0;comic=0;labelBackgroundColor=none;strokeWidth=1;fontFamily=Verdana;fontSize=12;movable=1;resizable=1;rotatable=1;deletable=1;editable=1;locked=0;connectable=1;" parent="1" vertex="1">
          <mxGeometry x="400" y="40" width="240" height="426" as="geometry" />
        </mxCell>
        <mxCell id="21ea969265ad0168-7" value="string: name" style="text;html=1;strokeColor=none;fillColor=none;spacingLeft=4;spacingRight=4;whiteSpace=wrap;overflow=hidden;rotatable=0;points=[[0,0.5],[1,0.5]];portConstraint=eastwest;" parent="21ea969265ad0168-6" vertex="1">
          <mxGeometry y="26" width="240" height="22" as="geometry" />
        </mxCell>
        <mxCell id="21ea969265ad0168-8" value="integer: status" style="text;html=1;strokeColor=none;fillColor=none;spacingLeft=4;spacingRight=4;whiteSpace=wrap;overflow=hidden;rotatable=0;points=[[0,0.5],[1,0.5]];portConstraint=eastwest;" parent="21ea969265ad0168-6" vertex="1">
          <mxGeometry y="48" width="240" height="26" as="geometry" />
        </mxCell>
        <mxCell id="21ea969265ad0168-9" value="string: phone" style="text;html=1;strokeColor=none;fillColor=none;spacingLeft=4;spacingRight=4;whiteSpace=wrap;overflow=hidden;rotatable=0;points=[[0,0.5],[1,0.5]];portConstraint=eastwest;" parent="21ea969265ad0168-6" vertex="1">
          <mxGeometry y="74" width="240" height="32" as="geometry" />
        </mxCell>
        <mxCell id="xhWmRmQsAdizvE6lCJVH-1" value="string: email" style="text;html=1;strokeColor=none;fillColor=none;spacingLeft=4;spacingRight=4;whiteSpace=wrap;overflow=hidden;rotatable=1;points=[[0,0.5],[1,0.5]];portConstraint=eastwest;movable=1;resizable=1;deletable=1;editable=1;locked=0;connectable=1;" parent="1" vertex="1">
          <mxGeometry x="401" y="143" width="239" height="23" as="geometry" />
        </mxCell>
        <mxCell id="xhWmRmQsAdizvE6lCJVH-2" value="string: description" style="text;html=1;strokeColor=none;fillColor=none;spacingLeft=4;spacingRight=4;whiteSpace=wrap;overflow=hidden;rotatable=0;points=[[0,0.5],[1,0.5]];portConstraint=eastwest;" parent="1" vertex="1">
          <mxGeometry x="401" y="170" width="209" height="21" as="geometry" />
        </mxCell>
        <mxCell id="xhWmRmQsAdizvE6lCJVH-3" value="string: rejection_reason" style="text;html=1;strokeColor=none;fillColor=none;spacingLeft=4;spacingRight=4;whiteSpace=wrap;overflow=hidden;rotatable=0;points=[[0,0.5],[1,0.5]];portConstraint=eastwest;" parent="1" vertex="1">
          <mxGeometry x="401" y="196" width="219" height="30" as="geometry" />
        </mxCell>
        <mxCell id="xhWmRmQsAdizvE6lCJVH-4" value="datetime, non-null: created_at" style="text;html=1;strokeColor=none;fillColor=none;spacingLeft=4;spacingRight=4;whiteSpace=wrap;overflow=hidden;rotatable=0;points=[[0,0.5],[1,0.5]];portConstraint=eastwest;" parent="1" vertex="1">
          <mxGeometry x="400" y="226" width="210" height="31" as="geometry" />
        </mxCell>
        <mxCell id="xhWmRmQsAdizvE6lCJVH-5" value="datetime, non-null: updated_at" style="text;html=1;strokeColor=none;fillColor=none;spacingLeft=4;spacingRight=4;whiteSpace=wrap;overflow=hidden;rotatable=0;points=[[0,0.5],[1,0.5]];portConstraint=eastwest;" parent="1" vertex="1">
          <mxGeometry x="400" y="251" width="210" height="22" as="geometry" />
        </mxCell>
        <mxCell id="xhWmRmQsAdizvE6lCJVH-6" value="boolean, default false: liability_insurance" style="text;html=1;strokeColor=none;fillColor=none;spacingLeft=4;spacingRight=4;whiteSpace=wrap;overflow=hidden;rotatable=0;points=[[0,0.5],[1,0.5]];portConstraint=eastwest;" parent="1" vertex="1">
          <mxGeometry x="400" y="275" width="240" height="26" as="geometry" />
        </mxCell>
        <mxCell id="xhWmRmQsAdizvE6lCJVH-7" value="string: primary_name" style="text;html=1;strokeColor=none;fillColor=none;spacingLeft=4;spacingRight=4;whiteSpace=wrap;overflow=hidden;rotatable=0;points=[[0,0.5],[1,0.5]];portConstraint=eastwest;" parent="1" vertex="1">
          <mxGeometry x="400" y="301" width="210" height="32" as="geometry" />
        </mxCell>
        <mxCell id="xhWmRmQsAdizvE6lCJVH-8" value="string: secondary_name" style="text;html=1;strokeColor=none;fillColor=none;spacingLeft=4;spacingRight=4;whiteSpace=wrap;overflow=hidden;rotatable=0;points=[[0,0.5],[1,0.5]];portConstraint=eastwest;" parent="1" vertex="1">
          <mxGeometry x="401" y="328" width="209" height="26" as="geometry" />
        </mxCell>
        <mxCell id="xhWmRmQsAdizvE6lCJVH-9" value="string: title" style="text;html=1;strokeColor=none;fillColor=none;spacingLeft=4;spacingRight=4;whiteSpace=wrap;overflow=hidden;rotatable=0;points=[[0,0.5],[1,0.5]];portConstraint=eastwest;" parent="1" vertex="1">
          <mxGeometry x="401" y="355" width="209" height="21" as="geometry" />
        </mxCell>
        <mxCell id="xhWmRmQsAdizvE6lCJVH-10" value="integer: transportation" style="text;html=1;strokeColor=none;fillColor=none;spacingLeft=4;spacingRight=4;whiteSpace=wrap;overflow=hidden;rotatable=0;points=[[0,0.5],[1,0.5]];portConstraint=eastwest;" parent="1" vertex="1">
          <mxGeometry x="401" y="382" width="209" height="29" as="geometry" />
        </mxCell>
        <mxCell id="xhWmRmQsAdizvE6lCJVH-11" value="index, unique: [&quot;email&quot;]" style="text;html=1;strokeColor=none;fillColor=none;spacingLeft=4;spacingRight=4;whiteSpace=wrap;overflow=hidden;rotatable=0;points=[[0,0.5],[1,0.5]];portConstraint=eastwest;" parent="1" vertex="1">
          <mxGeometry x="400" y="413" width="210" height="31" as="geometry" />
        </mxCell>
        <mxCell id="xhWmRmQsAdizvE6lCJVH-12" value="index, unique: [&quot;name&quot;]" style="text;html=1;strokeColor=none;fillColor=none;spacingLeft=4;spacingRight=4;whiteSpace=wrap;overflow=hidden;rotatable=0;points=[[0,0.5],[1,0.5]];portConstraint=eastwest;" parent="1" vertex="1">
          <mxGeometry x="400" y="435" width="240" height="31" as="geometry" />
        </mxCell>
        <mxCell id="xhWmRmQsAdizvE6lCJVH-13" value="organizations_resource_categories" style="swimlane;html=1;fontStyle=0;childLayout=stackLayout;horizontal=1;startSize=26;fillColor=#e0e0e0;horizontalStack=0;resizeParent=1;resizeLast=0;collapsible=1;marginBottom=0;swimlaneFillColor=#ffffff;align=center;rounded=1;shadow=0;comic=0;labelBackgroundColor=none;strokeWidth=1;fontFamily=Verdana;fontSize=12" parent="1" vertex="1">
          <mxGeometry x="420" y="560" width="300" height="116" as="geometry" />
        </mxCell>
        <mxCell id="xhWmRmQsAdizvE6lCJVH-14" value="integer, non-null: organization_id" style="text;html=1;strokeColor=none;fillColor=none;spacingLeft=4;spacingRight=4;whiteSpace=wrap;overflow=hidden;rotatable=0;points=[[0,0.5],[1,0.5]];portConstraint=eastwest;" parent="xhWmRmQsAdizvE6lCJVH-13" vertex="1">
          <mxGeometry y="26" width="300" height="22" as="geometry" />
        </mxCell>
        <mxCell id="xhWmRmQsAdizvE6lCJVH-15" value="integer, non-null: resource_category_id" style="text;html=1;strokeColor=none;fillColor=none;spacingLeft=4;spacingRight=4;whiteSpace=wrap;overflow=hidden;rotatable=0;points=[[0,0.5],[1,0.5]];portConstraint=eastwest;" parent="xhWmRmQsAdizvE6lCJVH-13" vertex="1">
          <mxGeometry y="48" width="300" height="26" as="geometry" />
        </mxCell>
        <mxCell id="xhWmRmQsAdizvE6lCJVH-16" value="index:&amp;nbsp;[&quot;organization_id&quot;, &quot;resource_category_od&quot;]" style="text;html=1;strokeColor=none;fillColor=none;spacingLeft=4;spacingRight=4;whiteSpace=wrap;overflow=hidden;rotatable=0;points=[[0,0.5],[1,0.5]];portConstraint=eastwest;" parent="xhWmRmQsAdizvE6lCJVH-13" vertex="1">
          <mxGeometry y="74" width="300" height="32" as="geometry" />
        </mxCell>
        <mxCell id="xhWmRmQsAdizvE6lCJVH-29" value="regions" style="swimlane;html=1;fontStyle=0;childLayout=stackLayout;horizontal=1;startSize=26;fillColor=#e0e0e0;horizontalStack=0;resizeParent=1;resizeLast=0;collapsible=1;marginBottom=0;swimlaneFillColor=#ffffff;align=center;rounded=1;shadow=0;comic=0;labelBackgroundColor=none;strokeWidth=1;fontFamily=Verdana;fontSize=12" parent="1" vertex="1">
          <mxGeometry x="820" y="600" width="190" height="116" as="geometry" />
        </mxCell>
        <mxCell id="xhWmRmQsAdizvE6lCJVH-30" value="string: name" style="text;html=1;strokeColor=none;fillColor=none;spacingLeft=4;spacingRight=4;whiteSpace=wrap;overflow=hidden;rotatable=0;points=[[0,0.5],[1,0.5]];portConstraint=eastwest;" parent="xhWmRmQsAdizvE6lCJVH-29" vertex="1">
          <mxGeometry y="26" width="190" height="22" as="geometry" />
        </mxCell>
        <mxCell id="xhWmRmQsAdizvE6lCJVH-31" value="datetime, non-null: created_at" style="text;html=1;strokeColor=none;fillColor=none;spacingLeft=4;spacingRight=4;whiteSpace=wrap;overflow=hidden;rotatable=0;points=[[0,0.5],[1,0.5]];portConstraint=eastwest;" parent="xhWmRmQsAdizvE6lCJVH-29" vertex="1">
          <mxGeometry y="48" width="190" height="26" as="geometry" />
        </mxCell>
        <mxCell id="xhWmRmQsAdizvE6lCJVH-32" value="datetime, non-null: updated_at" style="text;html=1;strokeColor=none;fillColor=none;spacingLeft=4;spacingRight=4;whiteSpace=wrap;overflow=hidden;rotatable=0;points=[[0,0.5],[1,0.5]];portConstraint=eastwest;" parent="xhWmRmQsAdizvE6lCJVH-29" vertex="1">
          <mxGeometry y="74" width="190" height="32" as="geometry" />
        </mxCell>
        <mxCell id="xhWmRmQsAdizvE6lCJVH-33" value="resource_categories" style="swimlane;html=1;fontStyle=0;childLayout=stackLayout;horizontal=1;startSize=26;fillColor=#e0e0e0;horizontalStack=0;resizeParent=1;resizeLast=0;collapsible=1;marginBottom=0;swimlaneFillColor=#ffffff;align=center;rounded=1;shadow=0;comic=0;labelBackgroundColor=none;strokeWidth=1;fontFamily=Verdana;fontSize=12;movable=1;resizable=1;rotatable=1;deletable=1;editable=1;locked=0;connectable=1;" parent="1" vertex="1">
          <mxGeometry x="50" y="656" width="240" height="146" as="geometry" />
        </mxCell>
        <mxCell id="xhWmRmQsAdizvE6lCJVH-34" value="string: name" style="text;html=1;strokeColor=none;fillColor=none;spacingLeft=4;spacingRight=4;whiteSpace=wrap;overflow=hidden;rotatable=0;points=[[0,0.5],[1,0.5]];portConstraint=eastwest;" parent="xhWmRmQsAdizvE6lCJVH-33" vertex="1">
          <mxGeometry y="26" width="240" height="22" as="geometry" />
        </mxCell>
        <mxCell id="xhWmRmQsAdizvE6lCJVH-35" value="datetime, non-null: created_at" style="text;html=1;strokeColor=none;fillColor=none;spacingLeft=4;spacingRight=4;whiteSpace=wrap;overflow=hidden;rotatable=0;points=[[0,0.5],[1,0.5]];portConstraint=eastwest;" parent="xhWmRmQsAdizvE6lCJVH-33" vertex="1">
          <mxGeometry y="48" width="240" height="26" as="geometry" />
        </mxCell>
        <mxCell id="xhWmRmQsAdizvE6lCJVH-36" value="datetime, non-null: updated_at" style="text;html=1;strokeColor=none;fillColor=none;spacingLeft=4;spacingRight=4;whiteSpace=wrap;overflow=hidden;rotatable=0;points=[[0,0.5],[1,0.5]];portConstraint=eastwest;" parent="xhWmRmQsAdizvE6lCJVH-33" vertex="1">
          <mxGeometry y="74" width="240" height="32" as="geometry" />
        </mxCell>
        <mxCell id="xhWmRmQsAdizvE6lCJVH-37" value="boolean, default=true: active" style="text;html=1;strokeColor=none;fillColor=none;spacingLeft=4;spacingRight=4;whiteSpace=wrap;overflow=hidden;rotatable=1;points=[[0,0.5],[1,0.5]];portConstraint=eastwest;movable=1;resizable=1;deletable=1;editable=1;locked=0;connectable=1;" parent="xhWmRmQsAdizvE6lCJVH-33" vertex="1">
          <mxGeometry y="106" width="240" height="23" as="geometry" />
        </mxCell>
        <mxCell id="xhWmRmQsAdizvE6lCJVH-50" value="tickets" style="swimlane;html=1;fontStyle=0;childLayout=stackLayout;horizontal=1;startSize=26;fillColor=#e0e0e0;horizontalStack=0;resizeParent=1;resizeLast=0;collapsible=1;marginBottom=0;swimlaneFillColor=#ffffff;align=center;rounded=1;shadow=0;comic=0;labelBackgroundColor=none;strokeWidth=1;fontFamily=Verdana;fontSize=12;movable=1;resizable=1;rotatable=1;deletable=1;editable=1;locked=0;connectable=1;" parent="1" vertex="1">
          <mxGeometry x="720" y="30" width="240" height="403" as="geometry" />
        </mxCell>
        <mxCell id="xhWmRmQsAdizvE6lCJVH-51" value="string: name" style="text;html=1;strokeColor=none;fillColor=none;spacingLeft=4;spacingRight=4;whiteSpace=wrap;overflow=hidden;rotatable=0;points=[[0,0.5],[1,0.5]];portConstraint=eastwest;" parent="xhWmRmQsAdizvE6lCJVH-50" vertex="1">
          <mxGeometry y="26" width="240" height="22" as="geometry" />
        </mxCell>
        <mxCell id="xhWmRmQsAdizvE6lCJVH-52" value="string: description" style="text;html=1;strokeColor=none;fillColor=none;spacingLeft=4;spacingRight=4;whiteSpace=wrap;overflow=hidden;rotatable=0;points=[[0,0.5],[1,0.5]];portConstraint=eastwest;" parent="xhWmRmQsAdizvE6lCJVH-50" vertex="1">
          <mxGeometry y="48" width="240" height="26" as="geometry" />
        </mxCell>
        <mxCell id="xhWmRmQsAdizvE6lCJVH-53" value="string: phone" style="text;html=1;strokeColor=none;fillColor=none;spacingLeft=4;spacingRight=4;whiteSpace=wrap;overflow=hidden;rotatable=0;points=[[0,0.5],[1,0.5]];portConstraint=eastwest;" parent="xhWmRmQsAdizvE6lCJVH-50" vertex="1">
          <mxGeometry y="74" width="240" height="32" as="geometry" />
        </mxCell>
        <mxCell id="xhWmRmQsAdizvE6lCJVH-54" value="integer: organization_id" style="text;html=1;strokeColor=none;fillColor=none;spacingLeft=4;spacingRight=4;whiteSpace=wrap;overflow=hidden;rotatable=1;points=[[0,0.5],[1,0.5]];portConstraint=eastwest;movable=1;resizable=1;deletable=1;editable=1;locked=0;connectable=1;" parent="1" vertex="1">
          <mxGeometry x="721" y="133" width="239" height="23" as="geometry" />
        </mxCell>
        <mxCell id="xhWmRmQsAdizvE6lCJVH-55" value="datetime, non-null: created_at" style="text;html=1;strokeColor=none;fillColor=none;spacingLeft=4;spacingRight=4;whiteSpace=wrap;overflow=hidden;rotatable=0;points=[[0,0.5],[1,0.5]];portConstraint=eastwest;" parent="1" vertex="1">
          <mxGeometry x="721" y="160" width="209" height="21" as="geometry" />
        </mxCell>
        <mxCell id="xhWmRmQsAdizvE6lCJVH-56" value="datetime, non-null: updated_at" style="text;html=1;strokeColor=none;fillColor=none;spacingLeft=4;spacingRight=4;whiteSpace=wrap;overflow=hidden;rotatable=0;points=[[0,0.5],[1,0.5]];portConstraint=eastwest;" parent="1" vertex="1">
          <mxGeometry x="721" y="186" width="219" height="30" as="geometry" />
        </mxCell>
        <mxCell id="xhWmRmQsAdizvE6lCJVH-57" value="boolean, default=false: closed" style="text;html=1;strokeColor=none;fillColor=none;spacingLeft=4;spacingRight=4;whiteSpace=wrap;overflow=hidden;rotatable=0;points=[[0,0.5],[1,0.5]];portConstraint=eastwest;" parent="1" vertex="1">
          <mxGeometry x="720" y="216" width="210" height="31" as="geometry" />
        </mxCell>
        <mxCell id="xhWmRmQsAdizvE6lCJVH-58" value="datetime: closed_at" style="text;html=1;strokeColor=none;fillColor=none;spacingLeft=4;spacingRight=4;whiteSpace=wrap;overflow=hidden;rotatable=0;points=[[0,0.5],[1,0.5]];portConstraint=eastwest;" parent="1" vertex="1">
          <mxGeometry x="720" y="241" width="210" height="22" as="geometry" />
        </mxCell>
        <mxCell id="xhWmRmQsAdizvE6lCJVH-59" value="integer: resource_category_id" style="text;html=1;strokeColor=none;fillColor=none;spacingLeft=4;spacingRight=4;whiteSpace=wrap;overflow=hidden;rotatable=0;points=[[0,0.5],[1,0.5]];portConstraint=eastwest;" parent="1" vertex="1">
          <mxGeometry x="720" y="265" width="240" height="26" as="geometry" />
        </mxCell>
        <mxCell id="xhWmRmQsAdizvE6lCJVH-60" value="integer: region_id" style="text;html=1;strokeColor=none;fillColor=none;spacingLeft=4;spacingRight=4;whiteSpace=wrap;overflow=hidden;rotatable=0;points=[[0,0.5],[1,0.5]];portConstraint=eastwest;" parent="1" vertex="1">
          <mxGeometry x="720" y="291" width="210" height="32" as="geometry" />
        </mxCell>
        <mxCell id="xhWmRmQsAdizvE6lCJVH-61" value="index: [&quot;organization_id&quot;]" style="text;html=1;strokeColor=none;fillColor=none;spacingLeft=4;spacingRight=4;whiteSpace=wrap;overflow=hidden;rotatable=0;points=[[0,0.5],[1,0.5]];portConstraint=eastwest;" parent="1" vertex="1">
          <mxGeometry x="721" y="318" width="209" height="26" as="geometry" />
        </mxCell>
        <mxCell id="xhWmRmQsAdizvE6lCJVH-62" value="index:[&quot;region_id&quot;]" style="text;html=1;strokeColor=none;fillColor=none;spacingLeft=4;spacingRight=4;whiteSpace=wrap;overflow=hidden;rotatable=0;points=[[0,0.5],[1,0.5]];portConstraint=eastwest;" parent="1" vertex="1">
          <mxGeometry x="721" y="345" width="239" height="21" as="geometry" />
        </mxCell>
        <mxCell id="xhWmRmQsAdizvE6lCJVH-63" value="index:[&quot;resource_category_id&quot;]" style="text;html=1;strokeColor=none;fillColor=none;spacingLeft=4;spacingRight=4;whiteSpace=wrap;overflow=hidden;rotatable=0;points=[[0,0.5],[1,0.5]];portConstraint=eastwest;" parent="1" vertex="1">
          <mxGeometry x="721" y="372" width="209" height="29" as="geometry" />
        </mxCell>
        <mxCell id="xhWmRmQsAdizvE6lCJVH-64" value="index: [&quot;resource_category_id&quot;]" style="text;html=1;strokeColor=none;fillColor=none;spacingLeft=4;spacingRight=4;whiteSpace=wrap;overflow=hidden;rotatable=0;points=[[0,0.5],[1,0.5]];portConstraint=eastwest;" parent="1" vertex="1">
          <mxGeometry x="720" y="403" width="210" height="31" as="geometry" />
        </mxCell>
        <mxCell id="xhWmRmQsAdizvE6lCJVH-66" value="users" style="swimlane;html=1;fontStyle=0;childLayout=stackLayout;horizontal=1;startSize=26;fillColor=#e0e0e0;horizontalStack=0;resizeParent=1;resizeLast=0;collapsible=1;marginBottom=0;swimlaneFillColor=#ffffff;align=center;rounded=1;shadow=0;comic=0;labelBackgroundColor=none;strokeWidth=1;fontFamily=Verdana;fontSize=12;movable=1;resizable=1;rotatable=1;deletable=1;editable=1;locked=0;connectable=1;" parent="1" vertex="1">
          <mxGeometry x="40" y="30" width="270" height="403" as="geometry" />
        </mxCell>
        <mxCell id="xhWmRmQsAdizvE6lCJVH-67" value="string, default=&quot;&quot;, non-null: email" style="text;html=1;strokeColor=none;fillColor=none;spacingLeft=4;spacingRight=4;whiteSpace=wrap;overflow=hidden;rotatable=0;points=[[0,0.5],[1,0.5]];portConstraint=eastwest;" parent="xhWmRmQsAdizvE6lCJVH-66" vertex="1">
          <mxGeometry y="26" width="270" height="22" as="geometry" />
        </mxCell>
        <mxCell id="xhWmRmQsAdizvE6lCJVH-68" value="string, default=&quot;&quot;, non-null: encrypted_password" style="text;html=1;strokeColor=none;fillColor=none;spacingLeft=4;spacingRight=4;whiteSpace=wrap;overflow=hidden;rotatable=0;points=[[0,0.5],[1,0.5]];portConstraint=eastwest;" parent="xhWmRmQsAdizvE6lCJVH-66" vertex="1">
          <mxGeometry y="48" width="270" height="26" as="geometry" />
        </mxCell>
        <mxCell id="xhWmRmQsAdizvE6lCJVH-69" value="string: reset_password_token" style="text;html=1;strokeColor=none;fillColor=none;spacingLeft=4;spacingRight=4;whiteSpace=wrap;overflow=hidden;rotatable=0;points=[[0,0.5],[1,0.5]];portConstraint=eastwest;" parent="xhWmRmQsAdizvE6lCJVH-66" vertex="1">
          <mxGeometry y="74" width="270" height="32" as="geometry" />
        </mxCell>
        <mxCell id="xhWmRmQsAdizvE6lCJVH-72" value="string: confirmation_token" style="text;html=1;strokeColor=none;fillColor=none;spacingLeft=4;spacingRight=4;whiteSpace=wrap;overflow=hidden;rotatable=0;points=[[0,0.5],[1,0.5]];portConstraint=eastwest;" parent="1" vertex="1">
          <mxGeometry x="41" y="186" width="219" height="30" as="geometry" />
        </mxCell>
        <mxCell id="xhWmRmQsAdizvE6lCJVH-73" value="datetime: confirmed_at" style="text;html=1;strokeColor=none;fillColor=none;spacingLeft=4;spacingRight=4;whiteSpace=wrap;overflow=hidden;rotatable=0;points=[[0,0.5],[1,0.5]];portConstraint=eastwest;" parent="1" vertex="1">
          <mxGeometry x="40" y="216" width="210" height="31" as="geometry" />
        </mxCell>
        <mxCell id="xhWmRmQsAdizvE6lCJVH-74" value="datetime: confirmation_sent_at" style="text;html=1;strokeColor=none;fillColor=none;spacingLeft=4;spacingRight=4;whiteSpace=wrap;overflow=hidden;rotatable=0;points=[[0,0.5],[1,0.5]];portConstraint=eastwest;" parent="1" vertex="1">
          <mxGeometry x="40" y="241" width="210" height="22" as="geometry" />
        </mxCell>
        <mxCell id="xhWmRmQsAdizvE6lCJVH-75" value="string: unconfirmed_email" style="text;html=1;strokeColor=none;fillColor=none;spacingLeft=4;spacingRight=4;whiteSpace=wrap;overflow=hidden;rotatable=0;points=[[0,0.5],[1,0.5]];portConstraint=eastwest;" parent="1" vertex="1">
          <mxGeometry x="40" y="265" width="240" height="26" as="geometry" />
        </mxCell>
        <mxCell id="xhWmRmQsAdizvE6lCJVH-76" value="integer, default=1: role" style="text;html=1;strokeColor=none;fillColor=none;spacingLeft=4;spacingRight=4;whiteSpace=wrap;overflow=hidden;rotatable=0;points=[[0,0.5],[1,0.5]];portConstraint=eastwest;" parent="1" vertex="1">
          <mxGeometry x="40" y="291" width="210" height="32" as="geometry" />
        </mxCell>
        <mxCell id="xhWmRmQsAdizvE6lCJVH-77" value="index, unique:[&quot;confirmation_token&quot;]" style="text;html=1;strokeColor=none;fillColor=none;spacingLeft=4;spacingRight=4;whiteSpace=wrap;overflow=hidden;rotatable=0;points=[[0,0.5],[1,0.5]];portConstraint=eastwest;" parent="1" vertex="1">
          <mxGeometry x="41" y="318" width="209" height="26" as="geometry" />
        </mxCell>
        <mxCell id="xhWmRmQsAdizvE6lCJVH-78" value="index, unique:[&quot;email&quot;]" style="text;html=1;strokeColor=none;fillColor=none;spacingLeft=4;spacingRight=4;whiteSpace=wrap;overflow=hidden;rotatable=0;points=[[0,0.5],[1,0.5]];portConstraint=eastwest;" parent="1" vertex="1">
          <mxGeometry x="41" y="345" width="209" height="21" as="geometry" />
        </mxCell>
        <mxCell id="xhWmRmQsAdizvE6lCJVH-79" value="index:[&quot;organization_id&quot;]" style="text;html=1;strokeColor=none;fillColor=none;spacingLeft=4;spacingRight=4;whiteSpace=wrap;overflow=hidden;rotatable=0;points=[[0,0.5],[1,0.5]];portConstraint=eastwest;" parent="1" vertex="1">
          <mxGeometry x="41" y="374" width="269" height="29" as="geometry" />
        </mxCell>
        <mxCell id="xhWmRmQsAdizvE6lCJVH-80" value="index, unique: [&quot;reset_password_token&quot;]" style="text;html=1;strokeColor=none;fillColor=none;spacingLeft=4;spacingRight=4;whiteSpace=wrap;overflow=hidden;rotatable=0;points=[[0,0.5],[1,0.5]];portConstraint=eastwest;" parent="1" vertex="1">
          <mxGeometry x="40" y="403" width="270" height="31" as="geometry" />
        </mxCell>
        <mxCell id="xhWmRmQsAdizvE6lCJVH-82" value="datetime, non-null: created_at" style="text;html=1;strokeColor=none;fillColor=none;spacingLeft=4;spacingRight=4;whiteSpace=wrap;overflow=hidden;rotatable=0;points=[[0,0.5],[1,0.5]];portConstraint=eastwest;" parent="1" vertex="1">
          <mxGeometry x="40" y="134" width="270" height="21" as="geometry" />
        </mxCell>
        <mxCell id="xhWmRmQsAdizvE6lCJVH-84" value="datetime, non-null: updated_at" style="text;html=1;strokeColor=none;fillColor=none;spacingLeft=4;spacingRight=4;whiteSpace=wrap;overflow=hidden;rotatable=0;points=[[0,0.5],[1,0.5]];portConstraint=eastwest;" parent="1" vertex="1">
          <mxGeometry x="40" y="161" width="219" height="30" as="geometry" />
        </mxCell>
        <mxCell id="mN92WHVEnBORVJgiVcwm-6" value="" style="edgeStyle=entityRelationEdgeStyle;fontSize=12;html=1;endArrow=ERzeroToMany;startArrow=ERzeroToOne;rounded=0;entryX=1;entryY=0.75;entryDx=0;entryDy=0;exitX=0;exitY=0.5;exitDx=0;exitDy=0;" edge="1" parent="1" source="xhWmRmQsAdizvE6lCJVH-7" target="xhWmRmQsAdizvE6lCJVH-66">
          <mxGeometry width="100" height="100" relative="1" as="geometry">
            <mxPoint x="350" y="480" as="sourcePoint" />
            <mxPoint x="510" y="690" as="targetPoint" />
            <Array as="points">
              <mxPoint x="-195" y="530" />
            </Array>
          </mxGeometry>
        </mxCell>
        <mxCell id="mN92WHVEnBORVJgiVcwm-8" value="" style="edgeStyle=entityRelationEdgeStyle;fontSize=12;html=1;endArrow=ERoneToMany;startArrow=ERzeroToOne;rounded=0;entryX=0;entryY=0.5;entryDx=0;entryDy=0;exitX=1;exitY=0.5;exitDx=0;exitDy=0;" edge="1" parent="1" source="21ea969265ad0168-6" target="xhWmRmQsAdizvE6lCJVH-61">
          <mxGeometry width="100" height="100" relative="1" as="geometry">
            <mxPoint x="530" y="170" as="sourcePoint" />
            <mxPoint x="780" y="210" as="targetPoint" />
          </mxGeometry>
        </mxCell>
        <mxCell id="mN92WHVEnBORVJgiVcwm-15" value="" style="edgeStyle=entityRelationEdgeStyle;fontSize=12;html=1;endArrow=ERoneToMany;rounded=0;exitX=1;exitY=0.5;exitDx=0;exitDy=0;entryX=0;entryY=0.5;entryDx=0;entryDy=0;" edge="1" parent="1" source="xhWmRmQsAdizvE6lCJVH-35" target="xhWmRmQsAdizvE6lCJVH-16">
          <mxGeometry width="100" height="100" relative="1" as="geometry">
            <mxPoint x="630" y="680" as="sourcePoint" />
            <mxPoint x="690" y="600" as="targetPoint" />
          </mxGeometry>
        </mxCell>
        <mxCell id="mN92WHVEnBORVJgiVcwm-16" value="" style="edgeStyle=entityRelationEdgeStyle;fontSize=12;html=1;endArrow=ERoneToMany;rounded=0;entryX=0;entryY=0.5;entryDx=0;entryDy=0;exitX=0.064;exitY=1.011;exitDx=0;exitDy=0;exitPerimeter=0;" edge="1" parent="1" source="xhWmRmQsAdizvE6lCJVH-12" target="xhWmRmQsAdizvE6lCJVH-15">
          <mxGeometry width="100" height="100" relative="1" as="geometry">
            <mxPoint x="330" y="480" as="sourcePoint" />
            <mxPoint x="670" y="550" as="targetPoint" />
            <Array as="points">
              <mxPoint x="410" y="430" />
              <mxPoint x="260" y="510" />
              <mxPoint x="600" y="520" />
            </Array>
          </mxGeometry>
        </mxCell>
        <mxCell id="mN92WHVEnBORVJgiVcwm-17" value="" style="edgeStyle=entityRelationEdgeStyle;fontSize=12;html=1;endArrow=ERoneToMany;rounded=0;entryX=1;entryY=0.5;entryDx=0;entryDy=0;exitX=0.75;exitY=0;exitDx=0;exitDy=0;" edge="1" parent="1" source="xhWmRmQsAdizvE6lCJVH-29" target="xhWmRmQsAdizvE6lCJVH-62">
          <mxGeometry width="100" height="100" relative="1" as="geometry">
            <mxPoint x="1020" y="590" as="sourcePoint" />
            <mxPoint x="1060" y="270" as="targetPoint" />
          </mxGeometry>
        </mxCell>
        <mxCell id="mN92WHVEnBORVJgiVcwm-18" value="" style="edgeStyle=entityRelationEdgeStyle;fontSize=12;html=1;endArrow=ERzeroToMany;endFill=1;rounded=0;exitX=1;exitY=0.5;exitDx=0;exitDy=0;entryX=0;entryY=0.5;entryDx=0;entryDy=0;" edge="1" parent="1" source="xhWmRmQsAdizvE6lCJVH-12" target="xhWmRmQsAdizvE6lCJVH-30">
          <mxGeometry width="100" height="100" relative="1" as="geometry">
            <mxPoint x="630" y="520" as="sourcePoint" />
            <mxPoint x="730" y="420" as="targetPoint" />
          </mxGeometry>
        </mxCell>
        <mxCell id="mN92WHVEnBORVJgiVcwm-19" value="" style="edgeStyle=entityRelationEdgeStyle;fontSize=12;html=1;endArrow=ERzeroToMany;endFill=1;rounded=0;exitX=1;exitY=0.5;exitDx=0;exitDy=0;entryX=-0.006;entryY=0.879;entryDx=0;entryDy=0;entryPerimeter=0;" edge="1" parent="1" source="xhWmRmQsAdizvE6lCJVH-37" target="xhWmRmQsAdizvE6lCJVH-32">
          <mxGeometry width="100" height="100" relative="1" as="geometry">
            <mxPoint x="630" y="640" as="sourcePoint" />
            <mxPoint x="730" y="540" as="targetPoint" />
          </mxGeometry>
        </mxCell>
      </root>
    </mxGraphModel>
  </diagram>
</mxfile>
